# xmcd
#
# Track frame offsets:
#	150
#	21495
#	76225
#	105367
#	141507
#	158015
#	187880
#	284030
#	303157
#
# Disc length: 4093 seconds
#
# Revision: 2
# Processed by: cddbd v1.4PL0 Copyright (c) Steve Scherf et al.
# Submitted via: audiograbber 1.81.03
#
DISCID=720ffb09
DTITLE=Albert Collins - The Things He Used To Do
DYEAR=1994
DGENRE=Blues
TTITLE0=Introduction
TTITLE1=Frosty
TTITLE2=All About My Girl
TTITLE3=I've Got A Mind To Travel
TTITLE4=Things That I Used To Do
TTITLE5=Wah Heat
TTITLE6=Can't You See What You're Doing To Me - Cold Tremor
TTITLE7=Cold Tremor
TTITLE8=Finale
EXTD=
EXTT0=
EXTT1=
EXTT2=
EXTT3=
EXTT4=
EXTT5=
EXTT6=
EXTT7=
EXTT8=
PLAYORDER=
